<svg class="myblock-chart-svg" viewBox="0 0 900 400" preserveAspectRatio="xMidYMid meet" role="img" aria-labelledby="chartTitle chartDesc">
  <title id="chartTitle">Normalized Performance Since Inception</title>
  <desc id="chartDesc">
    Line chart comparing normalized performance of the GenAi Chosen portfolio, the S&amp;P 500, and Bitcoin from October 9, 2025, with all assets normalized to 100 on the inception date and 100 shown as the central reference line.
  </desc>

  <!-- Grid lines -->
  <line class="myblock-chart-grid-line" x1="80" y1="50" x2="850" y2="50"/>
  <line class="myblock-chart-grid-line" x1="80" y1="125" x2="850" y2="125"/>
  <line class="myblock-chart-grid-line" x1="80" y1="200" x2="850" y2="200"/>
  <line class="myblock-chart-grid-line" x1="80" y1="275" x2="850" y2="275"/>
  <line class="myblock-chart-grid-line" x1="80" y1="350" x2="850" y2="350"/>

  <!-- Y-axis labels -->
  <text class="myblock-chart-label" x="65" y="55" text-anchor="end">120</text>
  <text class="myblock-chart-label" x="65" y="130" text-anchor="end">110</text>
  <text class="myblock-chart-label" x="65" y="205" text-anchor="end">100</text>
  <text class="myblock-chart-label" x="65" y="280" text-anchor="end">90</text>
  <text class="myblock-chart-label" x="65" y="355" text-anchor="end">80</text>

  <!-- X-axis labels -->
  <text class="myblock-chart-label" x="80.0" y="375" text-anchor="middle">Oct 9, 2025</text>
  <text class="myblock-chart-label" x="234.0" y="375" text-anchor="middle">Oct 16, 2025</text>
  <text class="myblock-chart-label" x="388.0" y="375" text-anchor="middle">Oct 23, 2025</text>
  <text class="myblock-chart-label" x="542.0" y="375" text-anchor="middle">Oct 30, 2025</text>
  <text class="myblock-chart-label" x="696.0" y="375" text-anchor="middle">Nov 6, 2025</text>
  <text class="myblock-chart-label" x="850.0" y="375" text-anchor="middle">Nov 13, 2025</text>

  <!-- Axes -->
  <line class="myblock-chart-axis" x1="80" y1="50" x2="80" y2="350"/>
  <line class="myblock-chart-axis" x1="80" y1="350" x2="850" y2="350"/>

  <!-- GenAi line -->
  <polyline class="myblock-chart-line-genai" points="80.0,200.0 234.0,170.8 388.0,158.9 542.0,163.9 696.0,170.3 850.0,170.9"/>
  <!-- SPX line -->
  <polyline class="myblock-chart-line-sp500" points="80.0,200.0 234.0,209.9 388.0,199.7 542.0,190.3 696.0,201.6 850.0,199.7"/>
  <!-- BTC line -->
  <polyline class="myblock-chart-line-bitcoin" points="80.0,200.0 234.0,289.4 388.0,277.9 542.0,282.6 696.0,325.7 850.0,335.6"/>
  <circle class="myblock-chart-dot myblock-chart-dot-genai" cx="80.0" cy="200.0"/>
  <circle class="myblock-chart-dot myblock-chart-dot-genai" cx="234.0" cy="170.8"/>
  <circle class="myblock-chart-dot myblock-chart-dot-genai" cx="388.0" cy="158.9"/>
  <circle class="myblock-chart-dot myblock-chart-dot-genai" cx="542.0" cy="163.9"/>
  <circle class="myblock-chart-dot myblock-chart-dot-genai" cx="696.0" cy="170.3"/>
  <circle class="myblock-chart-dot myblock-chart-dot-genai" cx="850.0" cy="170.9"/>
  <circle class="myblock-chart-dot myblock-chart-dot-sp500" cx="80.0" cy="200.0"/>
  <circle class="myblock-chart-dot myblock-chart-dot-sp500" cx="234.0" cy="209.9"/>
  <circle class="myblock-chart-dot myblock-chart-dot-sp500" cx="388.0" cy="199.7"/>
  <circle class="myblock-chart-dot myblock-chart-dot-sp500" cx="542.0" cy="190.3"/>
  <circle class="myblock-chart-dot myblock-chart-dot-sp500" cx="696.0" cy="201.6"/>
  <circle class="myblock-chart-dot myblock-chart-dot-sp500" cx="850.0" cy="199.7"/>
  <circle class="myblock-chart-dot myblock-chart-dot-bitcoin" cx="80.0" cy="200.0"/>
  <circle class="myblock-chart-dot myblock-chart-dot-bitcoin" cx="234.0" cy="289.4"/>
  <circle class="myblock-chart-dot myblock-chart-dot-bitcoin" cx="388.0" cy="277.9"/>
  <circle class="myblock-chart-dot myblock-chart-dot-bitcoin" cx="542.0" cy="282.6"/>
  <circle class="myblock-chart-dot myblock-chart-dot-bitcoin" cx="696.0" cy="325.7"/>
  <circle class="myblock-chart-dot myblock-chart-dot-bitcoin" cx="850.0" cy="335.6"/>

</svg>
